<svg width="17" height="24" viewBox="0 0 17 24" fill="none" xmlns="http://www.w3.org/2000/svg">
<path d="M15.5116 22.9732L15.5118 22.9733C15.542 22.9907 15.5764 23 15.6113 23C15.6645 23 15.7156 22.9788 15.7532 22.9412C15.7908 22.9035 15.812 22.8525 15.812 22.7993L15.812 3.60109C15.812 3.60083 15.812 3.60058 15.812 3.60032C15.8111 2.91098 15.5368 2.25013 15.0493 1.76267C14.5618 1.27516 13.9009 1.00089 13.2114 1H3.61261C2.92317 1.00089 2.26222 1.27516 1.7747 1.76267C1.28718 2.25019 1.01291 2.91115 1.01202 3.60059V22.7996C1.01207 22.8347 1.02134 22.8692 1.03891 22.8996L0.175896 23.3982L1.03891 22.8996C1.0565 22.9301 1.0818 22.9554 1.11226 22.973C1.14272 22.9906 1.17727 22.9998 1.21244 22.9999C1.24754 22.9999 1.28202 22.9907 1.31244 22.9732H15.5116ZM15.5116 22.9732L8.9116 19.1669L8.41202 18.8788L7.91244 19.1669L1.31265 22.9731L15.5116 22.9732Z" stroke="white" stroke-width="2"/>
</svg>
