<svg width="17" height="24" viewBox="0 0 17 24" fill="none" xmlns="http://www.w3.org/2000/svg">
<path d="M15.5115 22.9732L15.5117 22.9733C15.542 22.9907 15.5763 23 15.6112 23C15.6645 23 15.7155 22.9788 15.7531 22.9412C15.7908 22.9035 15.8119 22.8525 15.812 22.7993L15.812 3.60109C15.812 3.60083 15.812 3.60058 15.812 3.60032C15.811 2.91098 15.5367 2.25013 15.0493 1.76267C14.5618 1.27516 13.9008 1.00089 13.2114 1H3.61255C2.92311 1.00089 2.26215 1.27516 1.77464 1.76267C1.28712 2.25019 1.01285 2.91115 1.01196 3.60059V22.7996C1.01201 22.8347 1.02128 22.8692 1.03885 22.8996L0.175835 23.3982L1.03885 22.8996C1.05644 22.9301 1.08174 22.9554 1.1122 22.973C1.14266 22.9906 1.17721 22.9998 1.21238 22.9999C1.24748 22.9999 1.28196 22.9907 1.31238 22.9732H15.5115ZM15.5115 22.9732L8.91154 19.1669L8.41196 18.8788L7.91238 19.1669L1.31259 22.9731L15.5115 22.9732Z" stroke="#FFC700" stroke-width="2"/>
</svg>
